<?xml version="1.0" encoding="UTF-8"?>
<svg id="Livello_2" xmlns="http://www.w3.org/2000/svg" viewBox="0 0 250 250">
  <defs>
    <style>
      .cls-1 {
        fill: #fff;
      }
    </style>
  </defs>
  <g id="Livello_1-2" data-name="Livello_1">
    <g>
      <circle class="cls-1" cx="125" cy="125" r="125"/>
      <path d="M144.99,64.7v30.26c0,.65.53,1.18,1.18,1.18h34.52c13.9,0,18.33-.32,21.17-.32.94,0,1.42.63,1.42,1.26v7.11c0,.79-.48,1.42-1.42,1.42-3.01,0-7.27-.16-21.17-.16h-34.52c-.65,0-1.18.53-1.18,1.18v44.79c0,5.17.07,9.13.15,12.31,0,.26.1.5.26.71l7.66,9.66c.53.67,1.57.57,1.97-.18l25.43-47.91c5.5-10.5,7.11-13.8,8.33-16.26.03-.07.07-.13.12-.19.36-.46,1-1.13,1.89-1.08l8.21.39c1.26.06,1.52,1.34,1,2.11-1.22,2.31-3.1,5.23-8.83,15.87l-42.25,78.94c-5.71,11.02-7.49,14.76-9.04,17.53-.03.05-.05.09-.09.13-.35.46-1,1.15-1.91,1.11l-8.2-.39c-1.26-.06-1.52-1.34-1.01-2.11,1.4-2.78,3.62-6.15,9.53-17.1l10.41-19.36c.22-.42.18-.93-.11-1.3l-8.78-11.08-3.37-4.26L62.61,80.49c-.35-.43-1.05-.17-1.05.38v70.57c0,12.8.32,16.75.32,20.38,0,.95-.79,1.42-1.42,1.42h-7.58c-.63,0-1.42-.47-1.42-1.42,0-3.63.32-7.58.32-20.38V56.8c0-2.84,3-4.11,5.37-1.58l75.84,91.11c.64.77,1.89.32,1.89-.68v-69.25c0-11.69-.32-16.27-.32-20.22,0-.95.79-1.42,1.26-1.42h44.72c14.06,0,18.32-.32,21.33-.32.94,0,1.42.79,1.42,1.42v6.95c0,.79-.48,1.42-1.42,1.42-3.01,0-7.27-.16-21.33-.16h-34.76c-.47,0-.79,0-.79.63Z"/>
    </g>
  </g>
</svg>